<?xml version="1.0" encoding="utf-8"?>
<!-- Generator: Adobe Illustrator 24.0.2, SVG Export Plug-In . SVG Version: 6.00 Build 0)  -->
<svg version="1.1" id="Layer_1" xmlns="http://www.w3.org/2000/svg" xmlns:xlink="http://www.w3.org/1999/xlink" x="0px" y="0px"
	 viewBox="0 0 1920 1080" style="enable-background:new 0 0 1920 1080;" xml:space="preserve">
<style type="text/css">
	.st0{fill:#B3B3B3;}
	.st1{fill:#4D4D4D;}
	.st2{fill:none;}
</style>
<polygon class="st0" points="1278.3,0 391.3,56.7 635,0 "/>
<polygon class="st1" points="712.1,0 489.7,56.7 489.7,56.7 158.8,141 322.8,0 "/>
<polygon points="335.8,0 178.5,141 -0.5,301.5 -0.5,0 "/>
<polyline class="st2" points="1278.3,0 712.1,0 712.1,0 336.7,0 335.8,0 -0.5,0 "/>
<polygon points="1583.5,1079.8 1740.8,938.8 1919.8,778.3 1919.8,1079.8 "/>
<polygon class="st1" points="1207.2,1079.8 1421.7,1023.1 1421.7,1023.1 1740.8,938.8 1582.6,1079.8 "/>
<polygon class="st0" points="641,1079.8 1421.7,1023.1 1207.2,1079.8 "/>
<polyline class="st2" points="641,1079.8 1207.2,1079.8 1207.2,1079.8 1582.6,1079.8 1583.5,1079.8 1919.8,1079.8 "/>
</svg>
