<?xml version="1.0" encoding="utf-8"?>
<!-- Generator: Adobe Illustrator 24.0.2, SVG Export Plug-In . SVG Version: 6.00 Build 0)  -->
<svg version="1.1" id="Layer_1" xmlns="http://www.w3.org/2000/svg" xmlns:xlink="http://www.w3.org/1999/xlink" x="0px" y="0px"
	 viewBox="0 0 800 600" style="enable-background:new 0 0 800 600;" xml:space="preserve">
<style type="text/css">
	.st0{fill:url(#SVGID_1_);}
	.st1{fill:url(#SVGID_2_);}
	.st2{fill:url(#SVGID_3_);}
	.st3{fill:url(#SVGID_4_);}
	.st4{fill:url(#SVGID_5_);}
	.st5{fill:url(#SVGID_6_);}
</style>
<linearGradient id="SVGID_1_" gradientUnits="userSpaceOnUse" x1="346.955" y1="565.4062" x2="667.5" y2="565.4062">
	<stop  offset="0" style="stop-color:#FFFFFF"/>
	<stop  offset="9.953382e-02" style="stop-color:#F2FBF7"/>
	<stop  offset="0.2818" style="stop-color:#D1F0E2"/>
	<stop  offset="0.5265" style="stop-color:#9CDEC0"/>
	<stop  offset="0.8209" style="stop-color:#52C591"/>
	<stop  offset="1" style="stop-color:#22B573"/>
</linearGradient>
<path class="st0" d="M667.5,600.5c0,0-69.5-54-248.3-68.5c-178.7-14.5,30.3,68.5,30.3,68.5H667.5z"/>
<linearGradient id="SVGID_2_" gradientUnits="userSpaceOnUse" x1="155.7206" y1="539.9983" x2="449.5" y2="539.9983">
	<stop  offset="0" style="stop-color:#FFFFFF"/>
	<stop  offset="8.870482e-02" style="stop-color:#F2FBFA"/>
	<stop  offset="0.2513" style="stop-color:#D1F0ED"/>
	<stop  offset="0.4696" style="stop-color:#9BDDD9"/>
	<stop  offset="0.7348" style="stop-color:#51C4BC"/>
	<stop  offset="1" style="stop-color:#00A99D"/>
</linearGradient>
<path class="st1" d="M449.5,600.5c0,0-21.6-160.6-214.8-111.8s28.8,111.8,28.8,111.8H449.5z"/>
<linearGradient id="SVGID_3_" gradientUnits="userSpaceOnUse" x1="-14.0881" y1="410.0881" x2="219.9119" y2="644.0881">
	<stop  offset="0" style="stop-color:#FFFFFF"/>
	<stop  offset="0.1375" style="stop-color:#D6EFF9"/>
	<stop  offset="0.3642" style="stop-color:#99D7F1"/>
	<stop  offset="0.572" style="stop-color:#69C4EB"/>
	<stop  offset="0.7538" style="stop-color:#46B6E6"/>
	<stop  offset="0.9026" style="stop-color:#31AEE3"/>
	<stop  offset="1" style="stop-color:#29ABE2"/>
</linearGradient>
<path class="st2" d="M0.5,395.5c0,0,264-23,263,205H0.5V395.5z"/>
<linearGradient id="SVGID_4_" gradientUnits="userSpaceOnUse" x1="382.955" y1="248.6425" x2="703.5" y2="248.6425" gradientTransform="matrix(-1 0 0 -1 836 283.8243)">
	<stop  offset="0" style="stop-color:#FFFFFF"/>
	<stop  offset="9.953382e-02" style="stop-color:#F2FBF7"/>
	<stop  offset="0.2818" style="stop-color:#D1F0E2"/>
	<stop  offset="0.5265" style="stop-color:#9CDEC0"/>
	<stop  offset="0.8209" style="stop-color:#52C591"/>
	<stop  offset="1" style="stop-color:#22B573"/>
</linearGradient>
<path class="st3" d="M132.5,0.1c0,0,69.5,54,248.3,68.5S350.5,0.1,350.5,0.1H132.5"/>
<linearGradient id="SVGID_5_" gradientUnits="userSpaceOnUse" x1="191.7206" y1="223.2346" x2="485.5" y2="223.2346" gradientTransform="matrix(-1 0 0 -1 836 283.8243)">
	<stop  offset="0" style="stop-color:#FFFFFF"/>
	<stop  offset="8.870482e-02" style="stop-color:#F2FBFA"/>
	<stop  offset="0.2513" style="stop-color:#D1F0ED"/>
	<stop  offset="0.4696" style="stop-color:#9BDDD9"/>
	<stop  offset="0.7348" style="stop-color:#51C4BC"/>
	<stop  offset="1" style="stop-color:#00A99D"/>
</linearGradient>
<path class="st4" d="M350.5,0.1c0,0,21.6,160.6,214.8,111.8S536.5,0.1,536.5,0.1H350.5z"/>
<linearGradient id="SVGID_6_" gradientUnits="userSpaceOnUse" x1="21.9119" y1="93.3244" x2="255.9119" y2="327.3244" gradientTransform="matrix(-1 0 0 -1 836 283.8243)">
	<stop  offset="0" style="stop-color:#FFFFFF"/>
	<stop  offset="0.1375" style="stop-color:#D6EFF9"/>
	<stop  offset="0.3642" style="stop-color:#99D7F1"/>
	<stop  offset="0.572" style="stop-color:#69C4EB"/>
	<stop  offset="0.7538" style="stop-color:#46B6E6"/>
	<stop  offset="0.9026" style="stop-color:#31AEE3"/>
	<stop  offset="1" style="stop-color:#29ABE2"/>
</linearGradient>
<path class="st5" d="M799.5,205.1c0,0-264,23-263-205h263V205.1z"/>
</svg>
